<?xml version="1.0" encoding="UTF-8" standalone="no"?><!DOCTYPE svg PUBLIC "-//W3C//DTD SVG 1.1//EN" "http://www.w3.org/Graphics/SVG/1.1/DTD/svg11.dtd"><svg width="100%" height="100%" viewBox="0 0 1138 946" version="1.1" xmlns="http://www.w3.org/2000/svg" xmlns:xlink="http://www.w3.org/1999/xlink" xml:space="preserve" xmlns:serif="http://www.serif.com/" style="fill-rule:evenodd;clip-rule:evenodd;stroke-miterlimit:2;"><g><path d="M175.579,476.358c10.229,-138.341 108.671,-252.533 239.175,-286.291l0,-19.309c-140.821,34.279 -247.458,156.671 -257.987,305.242c-9.842,3.633 -16.871,13.075 -16.871,24.179c-0,14.242 11.546,25.792 25.791,25.792c14.246,-0 25.792,-11.55 25.792,-25.792c0,-10.742 -6.566,-19.941 -15.9,-23.821Z" style="fill:#fff;fill-rule:nonzero;"/><path d="M494.917,728.204c-10.071,0 -18.771,5.788 -23.021,14.2c-123.421,-11.637 -220.329,-115.812 -220.329,-242.225c-0,-106.1 68.283,-196.5 163.187,-229.717l0,-19.849c-105.454,33.954 -181.987,132.97 -181.987,249.566c-0,136.192 104.404,248.421 237.379,260.946c3.092,10.771 13,18.667 24.771,18.667c14.245,-0 25.796,-11.55 25.796,-25.792c-0,-14.246 -11.551,-25.796 -25.796,-25.796Z" style="fill:#fff;fill-rule:nonzero;"/><path d="M694.35,498.158c-0,-14.246 -11.55,-25.791 -25.796,-25.791c-14.246,-0 -25.791,11.545 -25.791,25.791c-0,11.175 7.116,20.659 17.049,24.246c-10.9,81.288 -80.67,144.2 -164.895,144.2c-91.763,0 -166.425,-74.658 -166.425,-166.425c-0,-62.721 34.887,-117.429 86.262,-145.787l0,-21.18c-62.108,29.938 -105.067,93.53 -105.067,166.967c0,102.134 83.092,185.229 185.23,185.229c94.812,0 173.171,-71.625 183.921,-163.6c9.129,-3.975 15.512,-13.062 15.512,-23.65Z" style="fill:#fff;fill-rule:nonzero;"/><path d="M527.717,172.246c1.316,-0.979 2.729,-1.471 4.233,-1.471c2.104,-0 3.896,0.642 5.363,1.921c1.47,1.279 2.2,3.271 2.2,5.983l-0,63.104c-0,2.034 -0.655,3.692 -1.975,4.967c-1.313,1.279 -3.025,1.921 -5.134,1.921c-2.033,-0 -3.725,-0.642 -5.083,-1.921c-1.354,-1.275 -2.029,-2.933 -2.029,-4.967l-0,-42.895l-18.63,33.979c-0.824,1.583 -1.729,2.766 -2.708,3.558c-0.979,0.787 -2.221,1.183 -3.725,1.183c-2.483,0 -4.554,-1.616 -6.208,-4.854l-18.063,-33.416l0,42.445c0,2.034 -0.658,3.692 -1.975,4.967c-1.316,1.279 -3.029,1.921 -5.137,1.921c-2.033,-0 -3.725,-0.642 -5.079,-1.921c-1.355,-1.275 -2.034,-2.933 -2.034,-4.967l0,-63.104c0,-2.483 0.734,-4.421 2.205,-5.812c1.466,-1.392 3.366,-2.092 5.699,-2.092c1.88,-0 3.421,0.529 4.63,1.583c1.204,1.05 2.404,2.709 3.608,4.967l22.804,40.979l23.146,-40.979c1.279,-2.408 2.575,-4.1 3.892,-5.079Z" style="fill:#fff;fill-rule:nonzero;"/><path d="M598.313,219.433l-11.517,-29.125l-11.513,29.125l23.03,0Zm-27.659,11.738l-5.196,13.1c-0.675,1.654 -1.541,2.804 -2.595,3.442c-1.055,0.641 -2.367,0.958 -3.95,0.958c-2.105,-0 -3.8,-0.563 -5.08,-1.696c-1.279,-1.125 -1.921,-2.629 -1.921,-4.513c0,-0.829 0.096,-1.599 0.288,-2.316c0.187,-0.713 0.508,-1.6 0.954,-2.65l25.742,-60.508c0.829,-1.959 1.883,-3.48 3.162,-4.576c1.28,-1.091 2.934,-1.637 4.967,-1.637c2.029,-0 3.708,0.546 5.021,1.637c1.321,1.096 2.387,2.617 3.221,4.576l25.737,60.508c0.754,1.729 1.129,3.158 1.129,4.287c0,2.109 -0.716,3.784 -2.146,5.025c-1.433,1.242 -3.195,1.863 -5.304,1.863c-1.733,-0 -3.141,-0.434 -4.233,-1.296c-1.096,-0.867 -2.013,-2.242 -2.767,-4.121l-4.741,-12.083l-32.288,-0Z" style="fill:#fff;fill-rule:nonzero;"/><path d="M680.933,189.683c-1.279,-1.237 -2.654,-2.308 -4.116,-3.212c-1.471,-0.904 -3.088,-1.621 -4.855,-2.15c-1.77,-0.525 -3.82,-0.788 -6.158,-0.788c-3.383,0 -6.433,0.638 -9.142,1.921c-2.708,1.275 -5.02,3.083 -6.941,5.421c-1.917,2.329 -3.388,5.133 -4.404,8.404c-1.013,3.275 -1.525,6.871 -1.525,10.783c-0,3.842 0.529,7.342 1.583,10.5c1.054,3.159 2.558,5.871 4.517,8.13c1.954,2.258 4.383,4.025 7.279,5.304c2.896,1.279 6.154,1.917 9.767,1.917c4.137,-0 7.6,-0.825 10.383,-2.484c2.787,-1.654 5.496,-4.021 8.129,-7.112c1.283,-1.355 2.825,-2.03 4.625,-2.03c1.812,0 3.279,0.713 4.408,2.146c1.13,1.434 1.692,2.855 1.692,4.288c0,0.904 -0.15,1.846 -0.45,2.825c-0.3,0.975 -0.867,1.992 -1.692,3.046c-1.054,1.279 -2.408,2.691 -4.066,4.233c-1.654,1.542 -3.634,2.971 -5.929,4.292c-2.296,1.316 -4.967,2.425 -8.017,3.329c-3.046,0.904 -6.45,1.354 -10.217,1.354c-5.417,-0 -10.362,-0.942 -14.841,-2.825c-4.476,-1.879 -8.334,-4.571 -11.571,-8.071c-3.238,-3.5 -5.742,-7.696 -7.505,-12.587c-1.77,-4.888 -2.658,-10.346 -2.658,-16.367c0,-5.946 0.888,-11.404 2.658,-16.371c1.763,-4.967 4.267,-9.217 7.505,-12.758c3.237,-3.534 7.095,-6.279 11.571,-8.238c4.479,-1.958 9.424,-2.933 14.841,-2.933c4.217,0 7.963,0.525 11.238,1.579c3.275,1.054 6.091,2.313 8.466,3.779c2.367,1.471 4.309,2.975 5.813,4.517c1.508,1.546 2.596,2.804 3.271,3.783c0.604,0.98 1.054,1.975 1.358,2.992c0.3,1.017 0.45,1.942 0.45,2.767c0,1.129 -0.208,2.125 -0.617,2.991c-0.416,0.867 -0.962,1.584 -1.641,2.142c-0.675,0.562 -1.409,0.983 -2.2,1.242c-0.792,0.266 -1.521,0.396 -2.204,0.396c-0.825,-0 -1.671,-0.13 -2.538,-0.396c-0.867,-0.259 -1.675,-0.809 -2.425,-1.634c-1.283,-1.508 -2.558,-2.883 -3.842,-4.125Z" style="fill:#fff;fill-rule:nonzero;"/><path d="M760.283,172.75c1.279,-1.312 3.013,-1.975 5.192,-1.975c2.108,-0 3.821,0.663 5.138,1.975c1.316,1.321 1.975,3.033 1.975,5.137l-0,63.671c-0,2.109 -0.659,3.821 -1.975,5.138c-1.317,1.312 -3.03,1.975 -5.138,1.975c-2.179,-0 -3.913,-0.663 -5.192,-1.975c-1.283,-1.317 -1.92,-3.029 -1.92,-5.138l-0,-26.641l-34.205,-0l0,26.641c0,2.109 -0.658,3.821 -1.975,5.138c-1.316,1.312 -3.029,1.975 -5.137,1.975c-2.108,-0 -3.821,-0.663 -5.134,-1.975c-1.32,-1.317 -1.979,-3.029 -1.979,-5.138l0,-63.671c0,-2.104 0.659,-3.816 1.979,-5.137c1.313,-1.312 3.026,-1.975 5.134,-1.975c2.108,-0 3.821,0.663 5.137,1.975c1.317,1.321 1.975,3.033 1.975,5.137l0,24.384l34.205,-0l-0,-24.384c-0,-2.104 0.637,-3.816 1.92,-5.137Z" style="fill:#fff;fill-rule:nonzero;"/><path d="M791.708,172.75c1.317,-1.312 3.029,-1.975 5.134,-1.975c2.108,-0 3.82,0.663 5.137,1.975c1.317,1.321 1.979,3.033 1.979,5.137l0,63.671c0,2.109 -0.662,3.821 -1.979,5.138c-1.317,1.312 -3.029,1.975 -5.137,1.975c-2.105,-0 -3.817,-0.663 -5.134,-1.975c-1.316,-1.317 -1.979,-3.029 -1.979,-5.138l0,-63.671c0,-2.104 0.663,-3.816 1.979,-5.137Z" style="fill:#fff;fill-rule:nonzero;"/><path d="M869.992,172.642c1.354,-1.242 3.05,-1.867 5.083,-1.867c1.954,-0 3.629,0.625 5.021,1.867c1.392,1.237 2.087,2.954 2.087,5.133l0,64.008c0,1.959 -0.583,3.596 -1.75,4.913c-1.162,1.312 -2.841,1.975 -5.021,1.975c-1.354,-0 -2.537,-0.246 -3.558,-0.733c-1.016,-0.488 -2.012,-1.338 -2.987,-2.538l-33.529,-45.383l-0,41.766c-0,2.184 -0.68,3.879 -2.038,5.084c-1.354,1.204 -3.046,1.804 -5.075,1.804c-2.033,-0 -3.729,-0.6 -5.083,-1.804c-1.354,-1.205 -2.029,-2.9 -2.029,-5.084l-0,-63.104c-0,-2.108 0.524,-3.95 1.579,-5.529c1.054,-1.583 2.858,-2.375 5.416,-2.375c1.134,-0 2.225,0.246 3.275,0.733c1.05,0.492 1.996,1.338 2.821,2.542l33.759,47.529l-0,-43.804c-0,-2.179 0.675,-3.896 2.029,-5.133Z" style="fill:#fff;fill-rule:nonzero;"/><path d="M952.446,237.775c1.167,1.096 1.75,2.617 1.75,4.575c-0,1.954 -0.583,3.5 -1.75,4.625c-1.167,1.133 -2.767,1.696 -4.796,1.696l-41.208,-0c-2.259,-0 -4.009,-0.663 -5.25,-1.975c-1.238,-1.317 -1.863,-3.029 -1.863,-5.138l0,-63.671c0,-2.104 0.625,-3.816 1.863,-5.137c1.241,-1.312 3.029,-1.975 5.362,-1.975l40.983,-0c2.03,-0 3.646,0.563 4.855,1.696c1.204,1.125 1.804,2.671 1.804,4.625c-0,1.958 -0.6,3.5 -1.804,4.629c-1.209,1.129 -2.825,1.696 -4.855,1.696l-33.983,-0l0,19.416l21.675,0c2.033,0 3.704,0.551 5.021,1.638c1.321,1.092 1.979,2.617 1.979,4.571c0,1.958 -0.658,3.5 -1.979,4.629c-1.317,1.129 -2.988,1.696 -5.021,1.696l-21.675,-0l0,20.771l34.096,-0c2.029,-0 3.629,0.545 4.796,1.633Z" style="fill:#fff;fill-rule:nonzero;"/><path d="M463.596,347.221c-1.242,-1.313 -1.863,-3.029 -1.863,-5.134l0,-63.674c0,-2.105 0.659,-3.817 1.975,-5.134c1.317,-1.317 3.029,-1.979 5.138,-1.979c2.108,-0 3.821,0.662 5.137,1.979c1.317,1.317 1.975,3.029 1.975,5.134l0,58.254l30.367,-0c2.033,-0 3.708,0.545 5.025,1.633c1.317,1.096 1.975,2.617 1.975,4.575c-0,1.958 -0.658,3.5 -1.975,4.625c-1.317,1.133 -2.992,1.7 -5.025,1.7l-37.367,-0c-2.333,-0 -4.121,-0.662 -5.362,-1.979Z" style="fill:#fff;fill-rule:nonzero;"/><path d="M577.717,338.3c1.166,1.096 1.75,2.617 1.75,4.575c-0,1.958 -0.584,3.5 -1.75,4.625c-1.167,1.133 -2.763,1.7 -4.8,1.7l-41.2,-0c-2.259,-0 -4.009,-0.662 -5.255,-1.979c-1.237,-1.313 -1.862,-3.029 -1.862,-5.134l-0,-63.674c-0,-2.105 0.625,-3.817 1.862,-5.134c1.246,-1.317 3.03,-1.979 5.363,-1.979l40.983,-0c2.029,-0 3.65,0.567 4.855,1.696c1.2,1.129 1.804,2.671 1.804,4.629c-0,1.958 -0.604,3.5 -1.804,4.625c-1.205,1.133 -2.826,1.696 -4.855,1.696l-33.987,-0l-0,19.417l21.679,-0c2.033,-0 3.704,0.549 5.025,1.637c1.317,1.096 1.975,2.617 1.975,4.575c-0,1.958 -0.658,3.5 -1.975,4.625c-1.321,1.133 -2.992,1.692 -5.025,1.692l-21.679,-0l-0,20.775l34.096,-0c2.037,-0 3.633,0.545 4.8,1.633Z" style="fill:#fff;fill-rule:nonzero;"/><path d="M633.529,319.958l-11.512,-29.125l-11.517,29.125l23.029,0Zm-27.658,11.738l-5.196,13.1c-0.675,1.654 -1.542,2.804 -2.596,3.441c-1.054,0.642 -2.371,0.963 -3.95,0.963c-2.108,-0 -3.8,-0.567 -5.079,-1.7c-1.279,-1.125 -1.921,-2.629 -1.921,-4.512c0,-0.83 0.096,-1.596 0.284,-2.313c0.187,-0.712 0.508,-1.6 0.958,-2.654l25.741,-60.509c0.826,-1.954 1.88,-3.479 3.163,-4.57c1.275,-1.092 2.933,-1.642 4.963,-1.642c2.037,-0 3.708,0.55 5.024,1.642c1.321,1.091 2.392,2.616 3.221,4.57l25.734,60.509c0.754,1.733 1.129,3.162 1.129,4.287c-0,2.109 -0.713,3.788 -2.142,5.025c-1.429,1.242 -3.196,1.867 -5.304,1.867c-1.733,-0 -3.142,-0.437 -4.238,-1.3c-1.087,-0.867 -2.012,-2.242 -2.766,-4.121l-4.738,-12.083l-32.287,-0Z" style="fill:#fff;fill-rule:nonzero;"/><path d="M707.233,305.904c2.329,-2.221 3.5,-5.325 3.5,-9.312c0,-4.067 -1.225,-7.192 -3.67,-9.367c-2.446,-2.188 -5.705,-3.279 -9.767,-3.279l-13.317,-0l0,25.291l13.546,0c4.138,0 7.371,-1.112 9.708,-3.333Zm14.225,4.625c-2.562,3.959 -6.325,6.913 -11.291,8.863l12.416,15.808c1.354,1.729 2.238,3.163 2.655,4.288c0.416,1.129 0.62,2.258 0.62,3.387c0,1.504 -0.6,2.933 -1.804,4.288c-1.204,1.362 -2.975,2.037 -5.308,2.037c-1.579,-0 -2.954,-0.396 -4.121,-1.188c-1.167,-0.791 -2.237,-1.824 -3.213,-3.108l-16.824,-23.029l-10.609,0l0,20.212c0,2.105 -0.662,3.821 -1.979,5.134c-1.312,1.317 -3.033,1.979 -5.133,1.979c-2.109,-0 -3.821,-0.662 -5.142,-1.979c-1.312,-1.313 -1.971,-3.029 -1.971,-5.134l0,-63.674c0,-2.105 0.659,-3.817 1.971,-5.134c1.321,-1.317 3.033,-1.979 5.142,-1.979l20.766,-0c4.292,-0 8.129,0.604 11.521,1.812c3.384,1.205 6.279,2.913 8.692,5.13c2.408,2.225 4.25,4.896 5.529,8.016c1.279,3.125 1.921,6.571 1.921,10.334c-0,5.341 -1.283,9.991 -3.838,13.937Z" style="fill:#fff;fill-rule:nonzero;"/><path d="M788.275,273.167c1.354,-1.242 3.046,-1.867 5.079,-1.867c1.954,-0 3.633,0.625 5.025,1.867c1.392,1.237 2.088,2.954 2.088,5.137l-0,64.004c-0,1.959 -0.584,3.6 -1.75,4.913c-1.171,1.317 -2.842,1.979 -5.025,1.979c-1.355,-0 -2.542,-0.25 -3.555,-0.738c-1.016,-0.487 -2.012,-1.333 -2.995,-2.537l-33.529,-45.383l-0,41.766c-0,2.188 -0.675,3.88 -2.03,5.084c-1.354,1.204 -3.045,1.808 -5.079,1.808c-2.033,-0 -3.725,-0.604 -5.079,-1.808c-1.354,-1.204 -2.033,-2.896 -2.033,-5.084l-0,-63.1c-0,-2.108 0.525,-3.954 1.579,-5.533c1.054,-1.583 2.862,-2.375 5.421,-2.375c1.129,-0 2.216,0.25 3.271,0.738c1.054,0.487 2,1.333 2.825,2.537l33.758,47.529l-0,-43.8c-0,-2.183 0.675,-3.9 2.029,-5.137Z" style="fill:#fff;fill-rule:nonzero;"/><path d="M819.588,273.279c1.316,-1.317 3.029,-1.979 5.137,-1.979c2.108,-0 3.821,0.662 5.133,1.979c1.321,1.317 1.98,3.029 1.98,5.134l-0,63.674c-0,2.105 -0.659,3.821 -1.98,5.134c-1.312,1.317 -3.025,1.979 -5.133,1.979c-2.108,-0 -3.821,-0.662 -5.137,-1.979c-1.317,-1.313 -1.975,-3.029 -1.975,-5.134l-0,-63.674c-0,-2.105 0.658,-3.817 1.975,-5.134Z" style="fill:#fff;fill-rule:nonzero;"/><path d="M897.875,273.167c1.35,-1.242 3.046,-1.867 5.075,-1.867c1.958,-0 3.629,0.625 5.025,1.867c1.392,1.237 2.087,2.954 2.087,5.137l0,64.004c0,1.959 -0.579,3.6 -1.75,4.913c-1.166,1.317 -2.837,1.979 -5.024,1.979c-1.355,-0 -2.538,-0.25 -3.551,-0.738c-1.016,-0.487 -2.016,-1.333 -2.995,-2.537l-33.529,-45.383l-0,41.766c-0,2.188 -0.675,3.88 -2.03,5.084c-1.354,1.204 -3.05,1.808 -5.083,1.808c-2.029,-0 -3.721,-0.604 -5.079,-1.808c-1.354,-1.204 -2.033,-2.896 -2.033,-5.084l-0,-63.1c-0,-2.108 0.529,-3.954 1.583,-5.533c1.054,-1.583 2.862,-2.375 5.421,-2.375c1.125,-0 2.216,0.25 3.271,0.738c1.054,0.487 1.991,1.333 2.825,2.537l33.75,47.529l-0,-43.8c-0,-2.183 0.679,-3.9 2.037,-5.137Z" style="fill:#fff;fill-rule:nonzero;"/><path d="M993.25,310.192c1.204,1.695 1.808,3.937 1.808,6.721c0,4.666 -0.775,9.033 -2.316,13.095c-1.542,4.063 -3.78,7.596 -6.717,10.609c-2.933,3.012 -6.513,5.383 -10.725,7.112c-4.212,1.729 -9.029,2.596 -14.45,2.596c-5.271,0 -10.142,-0.938 -14.621,-2.825c-4.475,-1.879 -8.354,-4.546 -11.625,-8.012c-3.275,-3.459 -5.833,-7.655 -7.679,-12.588c-1.842,-4.929 -2.767,-10.404 -2.767,-16.421c0,-6.1 0.946,-11.629 2.825,-16.596c1.88,-4.97 4.496,-9.204 7.846,-12.704c3.35,-3.496 7.283,-6.208 11.8,-8.125c4.513,-1.921 9.367,-2.879 14.563,-2.879c5.491,-0 10.346,0.846 14.558,2.538c4.217,1.691 8.246,4.495 12.079,8.412c1.659,1.504 2.75,2.917 3.279,4.229c0.525,1.321 0.788,2.583 0.788,3.788c0.075,2.029 -0.529,3.666 -1.808,4.908c-1.275,1.242 -2.784,1.867 -4.517,1.867c-1.125,-0 -2.238,-0.25 -3.325,-0.738c-1.096,-0.487 -2.167,-1.371 -3.221,-2.654c-2.179,-2.633 -4.646,-4.704 -7.392,-6.208c-2.745,-1.5 -6.116,-2.254 -10.104,-2.254c-3.612,-0 -6.833,0.633 -9.65,1.916c-2.825,1.279 -5.212,3.084 -7.171,5.421c-1.958,2.329 -3.441,5.133 -4.462,8.408c-1.013,3.271 -1.525,6.867 -1.525,10.78c-0,3.841 0.567,7.341 1.7,10.504c1.125,3.158 2.708,5.866 4.737,8.125c2.034,2.258 4.442,4.025 7.229,5.304c2.784,1.279 5.83,1.921 9.142,1.921c5.721,-0 10.254,-1.413 13.604,-4.234c3.346,-2.825 5.134,-6.829 5.363,-12.02l-13.775,-0c-2.179,-0 -3.913,-0.567 -5.192,-1.692c-1.283,-1.133 -1.921,-2.638 -1.921,-4.517c0,-1.887 0.638,-3.408 1.921,-4.575c1.279,-1.166 3.013,-1.75 5.192,-1.75l19.754,0c3.312,0 5.571,0.846 6.775,2.538Z" style="fill:#fff;fill-rule:nonzero;"/><path d="M484.246,424.387c-45.4,0 -82.25,36.909 -82.25,82.242c-0,45.317 36.85,82.179 82.25,82.179c45.304,0 82.192,-36.862 82.192,-82.179c-0,-45.333 -36.888,-82.242 -82.192,-82.242Z" style="fill:#2dba9b;fill-rule:nonzero;"/><path d="M481.004,460.225l25.929,0l12.496,-12.496" style="fill:none;stroke:#fff;stroke-width:9.81px;"/><path d="M536.963,440.388c-0,5.629 -4.563,10.191 -10.192,10.191c-5.629,0 -10.192,-4.562 -10.192,-10.191c0,-5.634 4.563,-10.192 10.192,-10.192c5.629,-0 10.192,4.558 10.192,10.192Z" style="fill:none;stroke:#fff;stroke-width:9.81px;"/><path d="M481.004,552.775l25.929,0l12.629,12.625" style="fill:none;stroke:#fff;stroke-width:9.81px;"/><path d="M536.963,572.604c-0,-5.625 -4.563,-10.192 -10.192,-10.192c-5.629,0 -10.192,4.567 -10.192,10.192c0,5.634 4.563,10.2 10.192,10.2c5.629,0 10.192,-4.566 10.192,-10.2Z" style="fill:none;stroke:#fff;stroke-width:9.81px;"/><path d="M570.575,506.142c0,5.633 -4.562,10.191 -10.192,10.191c-5.629,0 -10.196,-4.558 -10.196,-10.191c0,-5.625 4.567,-10.192 10.196,-10.192c5.63,-0 10.192,4.567 10.192,10.192Z" style="fill:none;stroke:#fff;stroke-width:9.81px;"/><path d="M550.437,537.938c0,5.633 -4.566,10.191 -10.191,10.191c-5.629,0 -10.196,-4.558 -10.196,-10.191c-0,-5.63 4.567,-10.192 10.196,-10.192c5.625,-0 10.191,4.562 10.191,10.192Z" style="fill:none;stroke:#fff;stroke-width:9.81px;"/><path d="M481.004,506.142l69.183,-0" style="fill:none;stroke:#fff;stroke-width:9.81px;"/><path d="M508.45,506.142l25.279,25.287" style="fill:none;stroke:#fff;stroke-width:9.81px;"/><path d="M540.246,464.458c5.625,0 10.191,4.567 10.191,10.196c0,5.629 -4.566,10.196 -10.191,10.196c-5.629,-0 -10.196,-4.567 -10.196,-10.196c-0,-5.629 4.567,-10.196 10.196,-10.196Z" style="fill:none;stroke:#fff;stroke-width:9.81px;"/><path d="M508.45,506.446l24.588,-24.583" style="fill:none;stroke:#fff;stroke-width:9.81px;"/><path d="M484.45,589.258c-0,11.379 -10.554,19.646 -21.679,17.259c-46.346,-9.95 -81.092,-51.154 -81.092,-100.475c0,-49.321 34.746,-90.525 81.092,-100.479c11.125,-2.388 21.679,5.879 21.679,17.258l-0,166.437Z" style="fill:none;stroke:#fff;stroke-width:9.81px;"/><path d="M484.517,422.821c-0,-11.379 10.554,-19.646 21.679,-17.258c46.35,9.954 81.092,51.158 81.092,100.479c-0,49.321 -34.742,90.525 -81.092,100.475c-11.125,2.387 -21.679,-5.88 -21.679,-17.259l-0,-166.437Z" style="fill:none;stroke:#fff;stroke-width:9.81px;"/><path d="M484.45,506.042c-16.417,-0 -29.725,-13.313 -29.725,-29.729" style="fill:none;stroke:#fff;stroke-width:9.81px;"/><path d="M434.554,527.521c0,-16.417 13.313,-29.729 29.729,-29.729" style="fill:none;stroke:#fff;stroke-width:9.81px;"/><path d="M417.346,427.912c11.608,11.609 11.608,30.434 -0,42.042" style="fill:none;stroke:#fff;stroke-width:9.81px;"/><path d="M467.817,448.004c-11.609,11.608 -30.43,11.608 -42.042,0" style="fill:none;stroke:#fff;stroke-width:9.81px;"/><path d="M417.346,584.004c11.608,-11.608 11.608,-30.433 -0,-42.042" style="fill:none;stroke:#fff;stroke-width:9.81px;"/><path d="M467.817,563.908c-11.609,-11.608 -30.43,-11.608 -42.042,0" style="fill:none;stroke:#fff;stroke-width:9.81px;"/></g></svg>